<svg id="Ebene_1" data-name="Ebene 1" xmlns="http://www.w3.org/2000/svg" viewBox="0 0 523.28 187.44"><defs><style>.cls-1{fill:#1d1d1b;}</style></defs><path class="cls-1" d="M101.85,187.12l-113,2.41.48,42.16L24,230.49l-.48,107.93,47.22-2.17L65.71,229.52l38.07.48-1.93-42.88Zm121.91,1.45-103.6,1.68-3.62,142.87L159,337.94,230,335.05l5.06-27.23L223.76,188.57ZM158.23,296.74l1.2-67,26.74,1.45,3.13,64.33-31.07,1.2Zm-14.7-117.57h28.91l.48-23.13H143.05l.48,23.13Zm37.34.72h27.47l.24-22.4H180.39l.48,22.4ZM336.74,343.48l43.13-19.27L350.24,281.8l16.14-8.19-3.62-80.71-36.37-6-72.28,4.34,1.68,148.4,47-.72-2.16-46.5,7.95-1.68,28.18,52.76ZM296.27,225l25.3-.49L321.32,256,296.75,258l-.48-33Zm215.87-36.62-45.78.48.24,47.7-35.42-48.43-41.92,4.1,1,142.87,42.64.72,1-84.56,32,40.23,1,45.29,44.33-1,1-147.44Z" transform="translate(11.14 -156.04)"/></svg>